<?xml version="1.0" encoding="UTF-8"?>
<svg id="Layer_1" data-name="Layer 1" xmlns="http://www.w3.org/2000/svg" viewBox="0 0 13 13">
  <defs>
    <style>
      .cls-1 {
        fill: #939496;
      }

      .cls-2 {
        fill: #98999b;
      }

      .cls-3 {
        fill: #a8a9ab;
      }

      .cls-4 {
        fill: #8c8d8f;
      }

      .cls-5 {
        fill: #797a7b;
      }

      .cls-6 {
        fill: #b0b1b3;
      }
    </style>
  </defs>
  <path class="cls-6" d="M9.48,3.86v7.81c0,.25-.2,.46-.46,.46h-2.53V3.86h2.99Z"/>
  <path class="cls-1" d="M7.49,1.12v1.22h-.99V.88h.74c.14,0,.25,.11,.25,.25Z"/>
  <polygon class="cls-3" points="9.48 3.86 6.5 3.86 6.5 2.35 7.49 2.35 9.48 3.86"/>
  <path class="cls-2" d="M6.5,3.86V12.12H3.98c-.26,0-.46-.21-.46-.46V3.86h2.98Z"/>
  <polygon class="cls-4" points="6.5 2.35 6.5 3.86 3.52 3.86 5.51 2.35 6.5 2.35"/>
  <path class="cls-5" d="M6.5,.88v1.47h-.99V1.12c0-.14,.12-.25,.25-.25h.74Z"/>
  <polygon class="cls-1" points="9.48 1.38 9.48 .88 8.62 1.38 7.75 1.88 8.62 2.38 9.48 2.88 9.48 2.38 8.62 1.88 9.48 1.38"/>
</svg>